# AST/ASF file generated using VICON BodyLanguage
# -----------------------------------------------
:version 1.10
:name VICON
:units
  mass 1.0
  length 0.45
  angle deg
:documentation
   .ast/.asf automatically generated from VICON data using
   VICON BodyBuilder and BodyLanguage model FoxedUp or BRILLIANT.MOD
:root
   order TX TY TZ RX RY RZ
   axis XYZ
   position 0 0 0  
   orientation 0 0 0 
:bonedata
  begin
     id 1 
     name lhipjoint
     direction 0.606768 -0.715223 0.346827 
     length 2.41543 
     axis 0 0 0  XYZ
  end
  begin
     id 2 
     name lfemur
     direction 0.34202 -0.939693 0  
     length 7.2778  
     axis 0 0 20  XYZ
    dof rx ry rz
    limits (-160.0 20.0)
           (-70.0 70.0)
           (-60.0 70.0)
  end
  begin
     id 3 
     name ltibia
     direction 0.34202 -0.939693 0   
     length 7.61811   
     axis 0 0 20   XYZ
    dof rx
    limits (-10.0 170.0)
  end
  begin
     id 4 
     name lfoot
     direction 0.0823924 -0.226371 0.97055   
     length 2.33618   
     axis -90 7.62852e-016 20   XYZ
    dof rx rz
    limits (-45.0 90.0)
           (-70.0 20.0)
  end
  begin
     id 5 
     name ltoes
     direction 1.53554e-011 -4.21934e-011 1   
     length 1.17015   
     axis -90 7.62852e-016 20   XYZ
    dof rx
    limits (-90.0 20.0)
  end
  begin
     id 6 
     name rhipjoint
     direction -0.6077 -0.714582 0.346516   
     length 2.4176  
     axis 0 0 0  XYZ 
  end
  begin
     id 7 
     name rfemur
     direction -0.34202 -0.939693 0   
     length 7.28127   
     axis 0 0 -20   XYZ
    dof rx ry rz
    limits (-160.0 20.0)
           (-70.0 70.0)
           (-70.0 60.0)
  end
  begin
     id 8 
     name rtibia
     direction -0.34202 -0.939693 0   
     length 7.77648   
     axis 0 0 -20   XYZ
    dof rx
    limits (-10.0 170.0)
 end
 begin
     id 9 
     name rfoot
     direction -0.0809463 -0.222398 0.97159   
     length 2.37533  
     axis -90 -7.62852e-016 -20   XYZ
    dof rx rz
    limits (-45.0 90.0)
           (-20.0 70.0)
  end
  begin
     id 10 
     name rtoes
     direction -1.53568e-011 -4.21714e-011 1   
     length 1.18972   
     axis -90 -7.62852e-016 -20   XYZ
    dof rx
    limits (-90.0 20.0)
  end
  begin
     id 11 
     name lowerback
     direction 0.010968 0.991932 -0.126297   
     length 2.21698   
     axis 0 0 0   XYZ
    dof rx ry rz
    limits (-20.0 45.0)
           (-30.0 30.0)
           (-30.0 30.0)
  end
  begin
     id 12 
     name upperback
     direction 0.0167007 0.997503 -0.0686276   
     length 2.22371   
     axis 0 0 0   XYZ
    dof rx ry rz
    limits (-20.0 45.0)
           (-30.0 30.0)
           (-30.0 30.0)
  end
  begin
     id 13 
     name thorax
     direction 0.0111721 0.999885 -0.0102878   
     length 2.25242   
     axis 0 0 0   XYZ
    dof rx ry rz
    limits (-20.0 45.0)
           (-30.0 30.0)
           (-30.0 30.0)
  end
  begin
     id 14 
     name lowerneck
     direction -0.0120265 0.990428 0.137508   
     length 1.57674   
     axis 0 0 0   XYZ
    dof rx ry rz
    limits (-20.0 45.0)
           (-30.0 30.0)
           (-30.0 30.0)
  end
  begin
     id 15 
     name upperneck
     direction 0.0175669 0.998907 0.0433089   
     length 1.5618   
     axis 0 0 0   XYZ
    dof rx ry rz
    limits (-20.0 45.0)
           (-30.0 30.0)
           (-30.0 30.0)
  end
  begin
     id 16
     name head
     direction 0.00754609 0.99997 0.00185367  
     length 1.60579  
     axis 0 0 0   XYZ
    dof rx ry rz
    limits (-20.0 45.0)
           (-30.0 30.0)
           (-30.0 30.0)
  end
  begin
     id 17 
     name lclavicle
     direction 0.885866 0.429166 -0.176231  
     length 3.44967  
     axis 0 0 0   XYZ
    dof ry rz
    limits (-20.0 10.0)
           (0.0 20.0)
  end
  begin
     id 18 
     name lhumerus
     direction 1 -4.48973e-011 -1.90255e-027   
     length 5.20607   
     axis 180 -30 -90   XYZ
    dof rx ry rz
    limits (-60.0 90.0)
           (-90.0 90.0)
           (-90.0 90.0)
  end
  begin
     id 19
     name lradius
     direction 1 -4.48956e-011 9.87925e-027   
     length 3.39961   
     axis 180 -30 -90   XYZ
    dof rx
    limits (-10.0 170.0)
  end
  begin
     id 20
     name lwrist
     direction 1 -4.48985e-011 1.73247e-026   
     length 1.6998   
     axis -9.60847e-015 90 90   XYZ
    dof ry
    limits (-180.0 0.0)
 end
  begin
     id 21 
     name lhand
     direction 1 -4.48798e-011 3.46119e-026   
     length 0.519693   
     axis -2.21073e-014 90 90   XYZ
    dof rx rz
    limits (-90.0 90.0)
           (-45.0 45.0)
  end
  begin
     id 22 
     name lfingers
     direction 1 -4.48938e-011 6.92797e-026   
     length 0.41899   
     axis -4.42155e-014 90 90   XYZ
    dof rx
    limits (0.0 90.0)
  end
  begin
     id 23
     name lthumb
     direction 0.707107 -6.34952e-011 0.707107   
     length 0.601588   
     axis -90 45 6.0103e-014   XYZ
    dof rx rz
    limits (-45.0 45.0)
           (-45.0 45.0)
  end
  begin
     id 24 
     name rclavicle
     direction -0.866736 0.456792 -0.200276   
     length 3.45032  
     axis 0 0 0   XYZ 
    dof ry rz
    limits (-10.0 20.0)
           (-20.0 0.0)
  end
  begin
     id 25 
     name rhumerus
     direction -1 -4.4897e-011 8.65094e-028  
     length 5.32214   
     axis 180 30 90   XYZ
    dof rx ry rz
    limits (-90.0 60.0)
           (-90.0 90.0)
           (-90.0 90.0)
  end
  begin
     id 26 
     name rradius
     direction -1 -4.48987e-011 1.08427e-026   
     length 3.51208   
     axis 180 30 90   XYZ
    dof rx
    limits (-10.0 170.0)
  end
  begin
     id 27 
     name rwrist
     direction -1 -4.48961e-011 1.73222e-026   
     length 1.75604   
     axis -9.60847e-015 -90 -90   XYZ
    dof ry
    limits (-180.0 0.0)
  end
  begin
     id 28
     name rhand
     direction -1 -4.48895e-011 3.46314e-026   
     length 0.586681   
     axis -2.21073e-014 -90 -90   XYZ
    dof rx rz
    limits (-90.0 90.0)
           (-45.0 45.0)
  end
  begin
     id 29
     name rfingers
     direction -1 -4.48968e-011 6.92916e-026   
     length 0.472997   
     axis -4.42155e-014 -90 -90   XYZ
    dof rx
    limits (0.0 90.0)
  end
  begin
     id 30
     name rthumb
     direction -0.707107 -6.34848e-011 0.707107   
     length 0.679133   
     axis -90 -45 -6.0103e-014   XYZ
    dof rx rz
    limits (-45.0 45.0)
           (-45.0 45.0)
  end
:hierarchy
  begin
    root lhipjoint rhipjoint lowerback
    lhipjoint lfemur
    lfemur ltibia
    ltibia lfoot
    lfoot ltoes
    rhipjoint rfemur
    rfemur rtibia
    rtibia rfoot
    rfoot rtoes
    lowerback upperback
    upperback thorax
    thorax lowerneck lclavicle rclavicle
    lowerneck upperneck
    upperneck head
    lclavicle lhumerus
    lhumerus lradius
    lradius lwrist
    lwrist lhand lthumb
    lhand lfingers
    rclavicle rhumerus
    rhumerus rradius
    rradius rwrist
    rwrist rhand rthumb
    rhand rfingers
  end

#!OML:ASF H:\Dans Jumps\Project 1\Capture day 1\Session 1\subject.ASF
:FULLY-SPECIFIED
:DEGREES
1
root 0.520034 17.5708 -13.7928 5.27937 -1.88355 -1.74301
lowerback -2.85729 -0.357998 0.342968
upperback 2.50554 -0.556378 1.5981
thorax 4.19766 -0.292486 1.42038
lowerneck -13.902 0.280114 -2.19542
upperneck 29.6248 0.767223 0.713696
head 12.0166 0.182312 0.755403
rclavicle -9.79014e-015 8.54774e-015
rhumerus -27.8802 -17.8207 -78.1861
rradius 24.1925
rwrist 31.1093
rhand -19.1748 -26.5653
rfingers 7.12502
rthumb 7.13639 -56.425
lclavicle -9.79014e-015 8.54774e-015
lhumerus -25.4175 3.5521 86.9312
lradius 16.4674
lwrist 1.95684
lhand -25.1252 -3.29674
lfingers 7.12502
lthumb 1.39067 26.6785
rfemur -11.0254 -2.26988 19.9931
rtibia 19.5797
rfoot -13.1558 -1.63297
rtoes 10.9417
lfemur -9.57405 6.35301 -17.6639
ltibia 17.6198
lfoot -10.9179 4.53019
ltoes 0.111226
2
root 0.519931 17.5708 -13.7948 5.29843 -1.88588 -1.75025
lowerback -2.85099 -0.351499 0.33959
upperback 2.49576 -0.547471 1.60288
thorax 4.1838 -0.288185 1.42781
lowerneck -13.9217 0.285855 -2.18109
upperneck 29.6523 0.768791 0.725015
head 12.0315 0.185838 0.757712
rclavicle -1.68967e-015 -6.36111e-015
rhumerus -27.8846 -17.8354 -78.1791
rradius 24.1751
rwrist 31.1773
rhand -19.2231 -26.522
rfingers 7.12502
rthumb 7.08979 -56.3833
lclavicle -1.68967e-015 -6.36111e-015
lhumerus -25.4072 3.53888 86.9179
lradius 16.4746
lwrist 1.94002
lhand -25.1595 -3.34128
lfingers 7.12502
lthumb 1.35752 26.6341
rfemur -11.0561 -2.27618 20.0037
rtibia 19.5862
rfoot -13.1496 -1.63062
rtoes 10.9078
lfemur -9.61128 6.36132 -17.6602
ltibia 17.6324
lfoot -10.9179 4.52989
ltoes 0.104405
3
root 0.51897 17.5712 -13.797 5.30577 -1.86195 -1.74554
lowerback -2.82922 -0.3542 0.31698
upperback 2.48388 -0.549743 1.6088
thorax 4.15945 -0.290007 1.44656
lowerneck -13.9007 0.287312 -2.20208
upperneck 29.6482 0.771571 0.739979
head 12.0253 0.186751 0.767224
rclavicle 8.89561e-015 -9.34288e-015
rhumerus -27.8948 -17.7954 -78.184
rradius 24.1871
rwrist 31.1502
rhand -19.205 -26.4963
rfingers 7.12502
rthumb 7.10724 -56.357
lclavicle 8.89561e-015 -9.34288e-015
lhumerus -25.4014 3.50456 86.9139
lradius 16.49
lwrist 1.9365
lhand -25.0886 -3.22786
lfingers 7.12502
lthumb 1.426 26.7471
rfemur -11.0747 -2.26582 20.0047
rtibia 19.5924
rfoot -13.1398 -1.66399
rtoes 10.8793
lfemur -9.63075 6.37604 -17.662
ltibia 17.6297
lfoot -10.9067 4.49325
ltoes 0.0447366
4
root 0.518921 17.5712 -13.7978 5.30698 -1.86163 -1.74106
lowerback -2.8384 -0.347692 0.314205
upperback 2.48774 -0.540812 1.60125
thorax 4.1684 -0.28555 1.44085
lowerneck -13.9326 0.287247 -2.16669
upperneck 29.6939 0.766918 0.727022
head 12.0504 0.186561 0.7561
rclavicle -6.06293e-015 6.95746e-015
rhumerus -27.8859 -17.8379 -78.1821
rradius 24.1464
rwrist 31.2541
rhand -19.2935 -26.5392
rfingers 7.12502
rthumb 7.02184 -56.4028
lclavicle -6.06293e-015 6.95746e-015
lhumerus -25.387 3.44823 86.8969
lradius 16.5087
lwrist 1.97273
lhand -25.1256 -3.31416
lfingers 7.12502
lthumb 1.3903 26.6611
rfemur -11.081 -2.26537 19.9987
rtibia 19.5981
rfoot -13.1463 -1.65997
rtoes 10.9303
lfemur -9.63591 6.35759 -17.6663
ltibia 17.6303
lfoot -10.9028 4.50564
ltoes 0.0650604
5
root 0.51858 17.5713 -13.7992 5.31294 -1.85733 -1.74055
lowerback -2.83451 -0.343715 0.306351
upperback 2.48332 -0.535 1.60122
thorax 4.16153 -0.282866 1.44561
lowerneck -13.9328 0.2861 -2.16333
upperneck 29.7117 0.761922 0.735289
head 12.0576 0.185633 0.758058
rclavicle -3.47873e-016 1.37161e-014
rhumerus -27.888 -17.8424 -78.1822
rradius 24.1267
rwrist 31.3166
rhand -19.3591 -26.5499
rfingers 7.12502
rthumb 6.95852 -56.4156
lclavicle -3.47873e-016 1.37161e-014
lhumerus -25.3742 3.41136 86.8823
lradius 16.5184
lwrist 1.98859
lhand -25.1434 -3.3722
lfingers 7.12502
lthumb 1.37306 26.6031
rfemur -11.0936 -2.26412 20.0001
rtibia 19.6008
rfoot -13.1443 -1.66656
rtoes 10.913
lfemur -9.6486 6.35815 -17.6664
ltibia 17.63
lfoot -10.8978 4.49976
ltoes 0.0576612
